#!OML:ASF F:\VICON\USERDATA\INSTALL\rory3\rory3.ASF
:FULLY-SPECIFIED
:DEGREES
406
root -7.15299 16.69 15.4686 365.342 249.038 12.9704
lowerback -5.80137 5.0743 4.47128
upperback -10.3904 6.16719 -0.481805
thorax -7.1477 2.47997 -2.95445
lowerneck -5.50945 15.8619 11.1771
upperneck 31.7218 19.6409 1.49216
head 12.4301 9.93956 1.2311
rclavicle 1.42752e-014 -4.37326e-015
rhumerus 44.567 82.438 3.07919
rradius 96.9627
rwrist -23.6644
rhand 28.1546 5.36823
rfingers 7.12502
rthumb 52.0404 -14.7134
lclavicle 1.42752e-014 -4.37326e-015
lhumerus -54.0742 -102.629 114.377
lradius 66.0318
lwrist 1.0682
lhand 15.0692 23.5697
lfingers 7.12502
lthumb 39.9168 48.8208
rfemur 137.45 -177.792 -153.979
rtibia 51.7881
rfoot -18.1599 -26.0704
rtoes 20.0612
lfemur -32.5914 -12.0832 -3.79148
ltibia 46.3646
lfoot -20.4157 10.974
ltoes -48.1166
407
root -7.15336 16.6791 15.6459 366.554 244.236 12.0024
lowerback -5.31182 5.09377 4.56903
upperback -10.5981 6.1945 -0.258669
thorax -7.66965 2.45362 -2.82553
lowerneck -5.57596 15.8982 11.0608
upperneck 31.5656 19.5745 1.72686
head 12.3319 9.90881 1.30833
rclavicle 1.0312e-014 1.8487e-014
rhumerus 51.3187 82.1267 9.51571
rradius 98.5322
rwrist -24.5428
rhand 24.9028 8.55233
rfingers 7.12502
rthumb 49.0719 -13.1444
lclavicle 1.0312e-014 1.8487e-014
lhumerus -54.3077 -102.392 113.806
lradius 67.9772
lwrist 3.29133
lhand 14.8241 23.3578
lfingers 7.12502
lthumb 39.6861 48.6778
rfemur 136.546 -177.688 -153.452
rtibia 51.3925
rfoot -18.0403 -25.3426
rtoes 20.9372
lfemur -31.3065 -11.7733 -4.36153
ltibia 46.491
lfoot -21.2771 12.3311
ltoes -48.0341
408
root -7.16474 16.6697 15.8719 369.063 239.68 10.2194
lowerback -5.56113 5.07488 4.55312
upperback -10.7612 6.09754 -0.306435
thorax -7.71038 2.37467 -2.85004
lowerneck -5.65285 15.8554 10.7577
upperneck 31.0912 19.4693 1.83358
head 12.0948 9.83717 1.33912
rclavicle 1.99033e-014 9.14409e-015
rhumerus 55.0018 81.1262 12.3974
rradius 99.7208
rwrist -26.4081
rhand 30.3093 -2.26059
rfingers 7.12502
rthumb 53.9848 -21.1089
lclavicle 1.99033e-014 9.14409e-015
lhumerus -56.2257 -102.201 114.835
lradius 69.8467
lwrist 5.18761
lhand 14.935 22.9878
lfingers 7.12502
lthumb 39.7904 48.2767
rfemur 134.643 -176.521 -153.412
rtibia 50.9837
rfoot -16.7052 -23.8874
rtoes 21.6912
lfemur -30.8593 -12.0887 -5.59418
ltibia 46.2629
lfoot -21.8074 14.1695
ltoes -47.8777
409
root -7.18807 16.6583 16.1331 371.433 235.175 8.66137
lowerback -5.45372 5.16291 4.82632
upperback -11.1373 6.14571 -0.519092
thorax -8.13725 2.31199 -3.24473
lowerneck -5.83131 15.6013 10.2919
upperneck 30.9298 19.046 2.01957
head 11.961 9.60196 1.39458
rclavicle -6.76116e-014 -4.13472e-014
rhumerus 55.1419 80.3354 11.9204
rradius 100.203
rwrist -28.412
rhand 26.5428 9.42062
rfingers 7.12502
rthumb 50.5737 -11.4956
lclavicle -6.76116e-014 -4.13472e-014
lhumerus -57.25 -101.971 115.135
lradius 71.7832
lwrist 7.37083
lhand 14.5963 22.9968
lfingers 7.12502
lthumb 39.4715 48.3801
rfemur 132.379 -175.035 -153.412
rtibia 50.5873
rfoot -14.4225 -22.105
rtoes 21.9162
lfemur -30.8496 -12.4559 -7.04351
ltibia 45.9974
lfoot -22.4291 14.9498
ltoes -47.0535
410
root -7.16952 16.675 16.2065 371.755 229.669 7.54833
lowerback -4.69234 5.16711 2.49059
upperback -10.9889 6.20574 -0.0820706
thorax -8.6874 2.5378 -1.57831
lowerneck -6.88979 15.6104 9.6872
upperneck 31.7771 18.7552 2.85535
head 12.3244 9.44759 1.85223
rclavicle -2.49723e-014 3.77691e-015
rhumerus 54.485 79.6633 10.8886
rradius 101.843
rwrist -29.4929
rhand 29.9212 2.06493
rfingers 7.12502
rthumb 53.6361 -17.0162
lclavicle -2.49723e-014 3.77691e-015
lhumerus -58.2967 -101.579 115.425
lradius 73.6635
lwrist 9.47414
lhand 14.8893 23.3675
lfingers 7.12502
lthumb 39.7475 48.6692
rfemur 132.972 -176.837 -153.609
rtibia 50.1731
rfoot -13.7478 -22.0089
rtoes 21.2551
lfemur -27.7845 -10.8823 -8.60961
ltibia 45.1321
lfoot -23.4952 14.4867
ltoes -46.3227
